<?xml version="1.0" encoding="UTF-8"?>
<svg xmlns="http://www.w3.org/2000/svg" xmlns:xlink="http://www.w3.org/1999/xlink" width="5000" height="4000" viewBox="0 0 5000 4000">
<defs>
<clipPath id="clip-0">

</clipPath>
<clipPath id="clip-1">
<path clip-rule="nonzero" d="M 1754.828125 3082 C 1572.699219 3013.769531 1394.28125 2928.199219 1221.078125 2838.578125 C 1122.480469 2787.550781 1026.550781 2731.429688 930.945312 2674.71875 C 837.457031 2619.269531 741.78125 2567.648438 648.714844 2511.511719 C 552.269531 2453.339844 463.898438 2383.878906 398.882812 2288.988281 C 341.375 2205.070312 302.507812 2108.269531 282.941406 2007.621094 C 242.578125 1800 289.929688 1586.699219 403.035156 1411.378906 C 522.238281 1226.601562 704.171875 1093.488281 908.863281 1028.230469 C 1017.640625 993.550781 1131.601562 977.148438 1245.371094 977.460938 C 1365.179688 977.78125 1481.480469 999.769531 1597.699219 1028.070312 C 1712.121094 1055.929688 1826.800781 1085.339844 1944.941406 1088.390625 C 2047.929688 1091.058594 2150.929688 1075.929688 2249.96875 1047.039062 C 2453.308594 987.730469 2638.28125 873.519531 2804.261719 740.660156 C 2887.921875 673.691406 2967.761719 601.398438 3043.640625 525.199219 C 3109.601562 458.960938 3174.558594 391.609375 3254.699219 343.398438 C 3415.679688 246.539062 3612.5 238.121094 3790.851562 279.789062 C 3982.398438 324.550781 4155.320312 439.089844 4262.171875 611.199219 C 4311.539062 690.71875 4344.699219 779.511719 4371.828125 869.339844 C 4401.730469 968.378906 4418.308594 1072.070312 4419.691406 1175.839844 C 4422.570312 1392.269531 4322.410156 1587.171875 4295.140625 1798.550781 C 4281.160156 1906.921875 4286.890625 2020.730469 4337.101562 2119.070312 C 4355.390625 2154.878906 4377.78125 2187.621094 4404.691406 2217.03125 C 4433.460938 2248.480469 4463.039062 2278.320312 4488.03125 2313.261719 C 4583.191406 2446.261719 4652.519531 2616.929688 4639.050781 2784.421875 C 4623.789062 2974.140625 4493.121094 3114.921875 4332.738281 3193 C 4279.238281 3219.039062 4221.941406 3239.980469 4163.878906 3251.71875 C 4106.878906 3263.238281 4048.699219 3265.199219 3990.789062 3266.480469 C 3931.730469 3267.78125 3872.808594 3267.058594 3813.878906 3262.460938 C 3652.339844 3249.839844 3496.648438 3202.28125 3334.921875 3190.640625 C 3138.019531 3176.460938 2940.78125 3193.109375 2744.078125 3202.808594 C 2528.878906 3213.429688 2312.890625 3213.890625 2099.890625 3176.160156 C 1982.378906 3155.339844 1867.039062 3123.539062 1754.828125 3082 C 1748.660156 3079.710938 1746.011719 3089.851562 1752.128906 3092.109375 C 1976.179688 3175.078125 2210.679688 3214.371094 2448.28125 3219.300781 C 2657.488281 3223.648438 2865.929688 3203.179688 3074.890625 3197.148438 C 3174.578125 3194.269531 3274.5 3195.050781 3373.878906 3204.359375 C 3451.828125 3211.660156 3527.820312 3226.628906 3604.320312 3242.78125 C 3691.691406 3261.210938 3780.519531 3272.511719 3869.621094 3276.328125 C 3983.828125 3281.230469 4105.898438 3282.28125 4216.660156 3249.378906 C 4338.53125 3213.171875 4458.179688 3147.628906 4541.738281 3047.570312 C 4605.078125 2971.730469 4643.230469 2877.261719 4649.738281 2777.210938 C 4656.101562 2679.519531 4634 2581.820312 4597.578125 2492.109375 C 4572.101562 2429.371094 4539.550781 2369.070312 4500.980469 2313.871094 C 4477.160156 2279.78125 4449.660156 2249.730469 4421.308594 2219.710938 C 4390.351562 2186.949219 4364.609375 2151.160156 4344.191406 2110.410156 C 4227.519531 1877.609375 4357.019531 1615.050781 4407.570312 1383.609375 C 4448.621094 1195.75 4427.820312 1004.519531 4367.71875 823.210938 C 4337.949219 733.371094 4301.230469 646.539062 4246.789062 569.421875 C 4182.210938 477.929688 4097.429688 402.441406 4000.890625 348.859375 C 3871.058594 276.800781 3717.710938 241.199219 3570.488281 245.648438 C 3461.011719 248.960938 3350.898438 274.839844 3255.230469 330.980469 C 3176.730469 377.03125 3112.019531 441.339844 3048 506.121094 C 2740.839844 816.890625 2332.949219 1118.191406 1880.089844 1073.890625 C 1752.519531 1061.410156 1629.488281 1022.199219 1504.390625 995.769531 C 1392.121094 972.050781 1277.78125 961.808594 1163.289062 969.671875 C 946.460938 984.570312 733.328125 1062.308594 566.214844 1207.75 C 415.039062 1339.320312 302.53125 1522.878906 268.808594 1725.429688 C 235.492188 1925.539062 280.550781 2141.101562 397.703125 2305.148438 C 461.300781 2394.210938 545.25 2460.660156 636.933594 2516.539062 C 732.941406 2575.058594 832.125 2628.210938 928.824219 2685.570312 C 1028.070312 2744.429688 1127.730469 2802.539062 1230.320312 2855.03125 C 1309.199219 2895.398438 1389.488281 2933.238281 1469.679688 2970.761719 C 1562.539062 3014.21875 1656.25 3056.199219 1752.128906 3092.109375 C 1758.289062 3094.421875 1760.941406 3084.289062 1754.828125 3082 Z M 1754.828125 3082 "/>
</clipPath>
<clipPath id="clip-2">
<path clip-rule="nonzero" d="M 1754.828125 3082 C 1572.699219 3013.769531 1394.28125 2928.199219 1221.078125 2838.578125 C 1122.480469 2787.550781 1026.550781 2731.429688 930.945312 2674.71875 C 837.457031 2619.269531 741.78125 2567.648438 648.714844 2511.511719 C 552.269531 2453.339844 463.898438 2383.878906 398.882812 2288.988281 C 341.375 2205.070312 302.507812 2108.269531 282.941406 2007.621094 C 242.578125 1800 289.929688 1586.699219 403.035156 1411.378906 C 522.238281 1226.601562 704.171875 1093.488281 908.863281 1028.230469 C 1017.640625 993.550781 1131.601562 977.148438 1245.371094 977.460938 C 1365.179688 977.78125 1481.480469 999.769531 1597.699219 1028.070312 C 1712.121094 1055.929688 1826.800781 1085.339844 1944.941406 1088.390625 C 2047.929688 1091.058594 2150.929688 1075.929688 2249.96875 1047.039062 C 2453.308594 987.730469 2638.28125 873.519531 2804.261719 740.660156 C 2887.921875 673.691406 2967.761719 601.398438 3043.640625 525.199219 C 3109.601562 458.960938 3174.558594 391.609375 3254.699219 343.398438 C 3415.679688 246.539062 3612.5 238.121094 3790.851562 279.789062 C 3982.398438 324.550781 4155.320312 439.089844 4262.171875 611.199219 C 4311.539062 690.71875 4344.699219 779.511719 4371.828125 869.339844 C 4401.730469 968.378906 4418.308594 1072.070312 4419.691406 1175.839844 C 4422.570312 1392.269531 4322.410156 1587.171875 4295.140625 1798.550781 C 4281.160156 1906.921875 4286.890625 2020.730469 4337.101562 2119.070312 C 4355.390625 2154.878906 4377.78125 2187.621094 4404.691406 2217.03125 C 4433.460938 2248.480469 4463.039062 2278.320312 4488.03125 2313.261719 C 4583.191406 2446.261719 4652.519531 2616.929688 4639.050781 2784.421875 C 4623.789062 2974.140625 4493.121094 3114.921875 4332.738281 3193 C 4279.238281 3219.039062 4221.941406 3239.980469 4163.878906 3251.71875 C 4106.878906 3263.238281 4048.699219 3265.199219 3990.789062 3266.480469 C 3931.730469 3267.78125 3872.808594 3267.058594 3813.878906 3262.460938 C 3652.339844 3249.839844 3496.648438 3202.28125 3334.921875 3190.640625 C 3138.019531 3176.460938 2940.78125 3193.109375 2744.078125 3202.808594 C 2528.878906 3213.429688 2312.890625 3213.890625 2099.890625 3176.160156 C 1982.378906 3155.339844 1867.039062 3123.539062 1754.828125 3082 C 1748.660156 3079.710938 1746.011719 3089.851562 1752.128906 3092.109375 C 1976.179688 3175.078125 2210.679688 3214.371094 2448.28125 3219.300781 C 2657.488281 3223.648438 2865.929688 3203.179688 3074.890625 3197.148438 C 3174.578125 3194.269531 3274.5 3195.050781 3373.878906 3204.359375 C 3451.828125 3211.660156 3527.820312 3226.628906 3604.320312 3242.78125 C 3691.691406 3261.210938 3780.519531 3272.511719 3869.621094 3276.328125 C 3983.828125 3281.230469 4105.898438 3282.28125 4216.660156 3249.378906 C 4338.53125 3213.171875 4458.179688 3147.628906 4541.738281 3047.570312 C 4605.078125 2971.730469 4643.230469 2877.261719 4649.738281 2777.210938 C 4656.101562 2679.519531 4634 2581.820312 4597.578125 2492.109375 C 4572.101562 2429.371094 4539.550781 2369.070312 4500.980469 2313.871094 C 4477.160156 2279.78125 4449.660156 2249.730469 4421.308594 2219.710938 C 4390.351562 2186.949219 4364.609375 2151.160156 4344.191406 2110.410156 C 4227.519531 1877.609375 4357.019531 1615.050781 4407.570312 1383.609375 C 4448.621094 1195.75 4427.820312 1004.519531 4367.71875 823.210938 C 4337.949219 733.371094 4301.230469 646.539062 4246.789062 569.421875 C 4182.210938 477.929688 4097.429688 402.441406 4000.890625 348.859375 C 3871.058594 276.800781 3717.710938 241.199219 3570.488281 245.648438 C 3461.011719 248.960938 3350.898438 274.839844 3255.230469 330.980469 C 3176.730469 377.03125 3112.019531 441.339844 3048 506.121094 C 2740.839844 816.890625 2332.949219 1118.191406 1880.089844 1073.890625 C 1752.519531 1061.410156 1629.488281 1022.199219 1504.390625 995.769531 C 1392.121094 972.050781 1277.78125 961.808594 1163.289062 969.671875 C 946.460938 984.570312 733.328125 1062.308594 566.214844 1207.75 C 415.039062 1339.320312 302.53125 1522.878906 268.808594 1725.429688 C 235.492188 1925.539062 280.550781 2141.101562 397.703125 2305.148438 C 461.300781 2394.210938 545.25 2460.660156 636.933594 2516.539062 C 732.941406 2575.058594 832.125 2628.210938 928.824219 2685.570312 C 1028.070312 2744.429688 1127.730469 2802.539062 1230.320312 2855.03125 C 1309.199219 2895.398438 1389.488281 2933.238281 1469.679688 2970.761719 C 1562.539062 3014.21875 1656.25 3056.199219 1752.128906 3092.109375 C 1758.289062 3094.421875 1760.941406 3084.289062 1754.828125 3082 "/>
</clipPath>
<linearGradient id="linear-pattern-0" gradientUnits="userSpaceOnUse" x1="-0.00515263" y1="0" x2="1.001199" y2="0" gradientTransform="matrix(4392.71, 0, 0, 4392.71, 258.125, 1762.08)">
<stop offset="0" stop-color="rgb(91.763306%, 95.292664%, 98.03772%)" stop-opacity="1"/>
<stop offset="0.015625" stop-color="rgb(91.636658%, 95.201111%, 98.008728%)" stop-opacity="1"/>
<stop offset="0.03125" stop-color="rgb(91.322327%, 94.975281%, 97.937012%)" stop-opacity="1"/>
<stop offset="0.046875" stop-color="rgb(90.94696%, 94.703674%, 97.850037%)" stop-opacity="1"/>
<stop offset="0.0625" stop-color="rgb(90.570068%, 94.432068%, 97.764587%)" stop-opacity="1"/>
<stop offset="0.078125" stop-color="rgb(90.194702%, 94.160461%, 97.677612%)" stop-opacity="1"/>
<stop offset="0.09375" stop-color="rgb(89.81781%, 93.890381%, 97.592163%)" stop-opacity="1"/>
<stop offset="0.109375" stop-color="rgb(89.442444%, 93.618774%, 97.505188%)" stop-opacity="1"/>
<stop offset="0.125" stop-color="rgb(89.065552%, 93.347168%, 97.418213%)" stop-opacity="1"/>
<stop offset="0.140625" stop-color="rgb(88.690186%, 93.075562%, 97.332764%)" stop-opacity="1"/>
<stop offset="0.15625" stop-color="rgb(88.313293%, 92.803955%, 97.245789%)" stop-opacity="1"/>
<stop offset="0.171875" stop-color="rgb(87.937927%, 92.533875%, 97.160339%)" stop-opacity="1"/>
<stop offset="0.1875" stop-color="rgb(87.561035%, 92.262268%, 97.073364%)" stop-opacity="1"/>
<stop offset="0.203125" stop-color="rgb(87.185669%, 91.990662%, 96.987915%)" stop-opacity="1"/>
<stop offset="0.21875" stop-color="rgb(86.808777%, 91.719055%, 96.90094%)" stop-opacity="1"/>
<stop offset="0.234375" stop-color="rgb(86.431885%, 91.447449%, 96.813965%)" stop-opacity="1"/>
<stop offset="0.25" stop-color="rgb(86.056519%, 91.177368%, 96.728516%)" stop-opacity="1"/>
<stop offset="0.265625" stop-color="rgb(85.679626%, 90.905762%, 96.641541%)" stop-opacity="1"/>
<stop offset="0.28125" stop-color="rgb(85.30426%, 90.634155%, 96.556091%)" stop-opacity="1"/>
<stop offset="0.296875" stop-color="rgb(84.927368%, 90.362549%, 96.469116%)" stop-opacity="1"/>
<stop offset="0.3125" stop-color="rgb(84.552002%, 90.090942%, 96.382141%)" stop-opacity="1"/>
<stop offset="0.328125" stop-color="rgb(84.17511%, 89.819336%, 96.296692%)" stop-opacity="1"/>
<stop offset="0.34375" stop-color="rgb(83.799744%, 89.549255%, 96.209717%)" stop-opacity="1"/>
<stop offset="0.359375" stop-color="rgb(83.422852%, 89.277649%, 96.124268%)" stop-opacity="1"/>
<stop offset="0.375" stop-color="rgb(83.047485%, 89.006042%, 96.037292%)" stop-opacity="1"/>
<stop offset="0.390625" stop-color="rgb(82.670593%, 88.734436%, 95.951843%)" stop-opacity="1"/>
<stop offset="0.40625" stop-color="rgb(82.295227%, 88.46283%, 95.864868%)" stop-opacity="1"/>
<stop offset="0.421875" stop-color="rgb(81.918335%, 88.192749%, 95.777893%)" stop-opacity="1"/>
<stop offset="0.4375" stop-color="rgb(81.542969%, 87.921143%, 95.692444%)" stop-opacity="1"/>
<stop offset="0.453125" stop-color="rgb(81.166077%, 87.649536%, 95.605469%)" stop-opacity="1"/>
<stop offset="0.46875" stop-color="rgb(80.79071%, 87.37793%, 95.52002%)" stop-opacity="1"/>
<stop offset="0.484375" stop-color="rgb(80.413818%, 87.106323%, 95.433044%)" stop-opacity="1"/>
<stop offset="0.5" stop-color="rgb(80.038452%, 86.836243%, 95.347595%)" stop-opacity="1"/>
<stop offset="0.515625" stop-color="rgb(79.66156%, 86.564636%, 95.26062%)" stop-opacity="1"/>
<stop offset="0.53125" stop-color="rgb(79.286194%, 86.29303%, 95.173645%)" stop-opacity="1"/>
<stop offset="0.546875" stop-color="rgb(78.909302%, 86.021423%, 95.088196%)" stop-opacity="1"/>
<stop offset="0.5625" stop-color="rgb(78.533936%, 85.749817%, 95.001221%)" stop-opacity="1"/>
<stop offset="0.578125" stop-color="rgb(78.157043%, 85.47821%, 94.915771%)" stop-opacity="1"/>
<stop offset="0.59375" stop-color="rgb(77.781677%, 85.20813%, 94.828796%)" stop-opacity="1"/>
<stop offset="0.609375" stop-color="rgb(77.404785%, 84.936523%, 94.743347%)" stop-opacity="1"/>
<stop offset="0.625" stop-color="rgb(77.029419%, 84.664917%, 94.656372%)" stop-opacity="1"/>
<stop offset="0.640625" stop-color="rgb(76.652527%, 84.393311%, 94.569397%)" stop-opacity="1"/>
<stop offset="0.65625" stop-color="rgb(76.277161%, 84.121704%, 94.483948%)" stop-opacity="1"/>
<stop offset="0.671875" stop-color="rgb(75.900269%, 83.851624%, 94.396973%)" stop-opacity="1"/>
<stop offset="0.6875" stop-color="rgb(75.524902%, 83.580017%, 94.311523%)" stop-opacity="1"/>
<stop offset="0.703125" stop-color="rgb(75.14801%, 83.308411%, 94.224548%)" stop-opacity="1"/>
<stop offset="0.71875" stop-color="rgb(74.772644%, 83.036804%, 94.137573%)" stop-opacity="1"/>
<stop offset="0.734375" stop-color="rgb(74.395752%, 82.765198%, 94.052124%)" stop-opacity="1"/>
<stop offset="0.75" stop-color="rgb(74.020386%, 82.495117%, 93.965149%)" stop-opacity="1"/>
<stop offset="0.765625" stop-color="rgb(73.643494%, 82.223511%, 93.8797%)" stop-opacity="1"/>
<stop offset="0.78125" stop-color="rgb(73.268127%, 81.951904%, 93.792725%)" stop-opacity="1"/>
<stop offset="0.796875" stop-color="rgb(72.891235%, 81.680298%, 93.707275%)" stop-opacity="1"/>
<stop offset="0.8125" stop-color="rgb(72.515869%, 81.408691%, 93.6203%)" stop-opacity="1"/>
<stop offset="0.828125" stop-color="rgb(72.138977%, 81.137085%, 93.533325%)" stop-opacity="1"/>
<stop offset="0.84375" stop-color="rgb(71.762085%, 80.867004%, 93.447876%)" stop-opacity="1"/>
<stop offset="0.859375" stop-color="rgb(71.386719%, 80.595398%, 93.360901%)" stop-opacity="1"/>
<stop offset="0.875" stop-color="rgb(71.009827%, 80.323792%, 93.275452%)" stop-opacity="1"/>
<stop offset="0.890625" stop-color="rgb(70.63446%, 80.052185%, 93.188477%)" stop-opacity="1"/>
<stop offset="0.90625" stop-color="rgb(70.257568%, 79.780579%, 93.103027%)" stop-opacity="1"/>
<stop offset="0.921875" stop-color="rgb(69.882202%, 79.510498%, 93.016052%)" stop-opacity="1"/>
<stop offset="0.9375" stop-color="rgb(69.50531%, 79.238892%, 92.929077%)" stop-opacity="1"/>
<stop offset="0.953125" stop-color="rgb(69.129944%, 78.967285%, 92.843628%)" stop-opacity="1"/>
<stop offset="0.96875" stop-color="rgb(68.753052%, 78.695679%, 92.756653%)" stop-opacity="1"/>
<stop offset="0.984375" stop-color="rgb(68.377686%, 78.424072%, 92.671204%)" stop-opacity="1"/>
<stop offset="1" stop-color="rgb(68.016052%, 78.163147%, 92.58728%)" stop-opacity="1"/>
</linearGradient>
</defs>

<g clip-path="url(#clip-0)">
<g clip-path="url(#clip-1)">
<g clip-path="url(#clip-2)">
<path fill-rule="nonzero" fill="url(#linear-pattern-0)" d="M 235.492188 238.121094 L 235.492188 3282.28125 L 4656.101562 3282.28125 L 4656.101562 238.121094 Z M 235.492188 238.121094 "/>
</g>
</g>
</g>
<path fill-rule="nonzero" fill="rgb(80.076599%, 88.28125%, 95.701599%)" fill-opacity="1" d="M 1772.191406 3116.78125 C 1526.53125 3087.25 791.714844 2998.898438 514.964844 2425.261719 C 365.570312 2115.601562 345.570312 1656.058594 582.738281 1381.058594 C 795.742188 1134.078125 1157.71875 1103.738281 1355.371094 1087.171875 C 1689.179688 1059.191406 1771.558594 1158.53125 2006.011719 1087.171875 C 2282.988281 1002.871094 2327.289062 815.738281 2558.378906 634.21875 C 2958.070312 320.28125 3690.988281 200.300781 4147.699219 565.070312 C 4376.410156 747.738281 4610.601562 1111.691406 4561.128906 1453.671875 C 4529.53125 1672.050781 4397 1779.628906 4449.300781 1989.601562 C 4495.898438 2176.710938 4613.148438 2177.910156 4686.511719 2383.769531 C 4760.488281 2591.351562 4739.628906 2877.730469 4588.238281 3040.71875 C 4494.828125 3141.28125 4362.199219 3183.589844 4008.761719 3189.390625 C 3379.929688 3199.710938 3159.078125 3076.289062 2639.710938 3058 C 2113.949219 3039.488281 2160.628906 3163.480469 1772.191406 3116.78125 "/>
<path fill-rule="nonzero" fill="rgb(79.6875%, 87.889099%, 96.09375%)" fill-opacity="1" d="M 4689 3536.210938 C 4689 3654.210938 3708.949219 3749.878906 2500 3749.878906 C 1291.050781 3749.878906 311 3654.210938 311 3536.210938 C 311 3418.210938 1291.050781 3322.550781 2500 3322.550781 C 3708.949219 3322.550781 4689 3418.210938 4689 3536.210938 "/>
<path fill-rule="nonzero" fill="rgb(70.117188%, 58.396912%, 37.255859%)" fill-opacity="1" d="M 3368.550781 3586.96875 C 3373.148438 3604.199219 3366.078125 3622.609375 3350.820312 3631.820312 C 3346.011719 3634.71875 3340.429688 3637.28125 3334.011719 3639.070312 C 3324.710938 3641.660156 3316.058594 3641.960938 3308.570312 3641.160156 C 3293.820312 3639.601562 3281.148438 3629.960938 3275.539062 3616.21875 C 3216.800781 3472.519531 3158.070312 3328.808594 3099.328125 3185.101562 C 3090.601562 3163.738281 3101.460938 3139.410156 3123.199219 3131.640625 C 3147.03125 3123.121094 3170.871094 3114.609375 3194.710938 3106.089844 C 3217 3098.121094 3241.351562 3110.898438 3247.460938 3133.769531 L 3368.550781 3586.96875 "/>
<path fill-rule="nonzero" fill="rgb(70.117188%, 58.396912%, 37.255859%)" fill-opacity="1" d="M 1684.449219 3586.96875 C 1679.851562 3604.199219 1686.910156 3622.609375 1702.179688 3631.820312 C 1706.980469 3634.71875 1712.570312 3637.28125 1718.988281 3639.070312 C 1728.289062 3641.660156 1736.941406 3641.960938 1744.421875 3641.160156 C 1759.179688 3639.601562 1771.851562 3629.960938 1777.460938 3616.21875 C 1836.191406 3472.519531 1894.929688 3328.808594 1953.660156 3185.101562 C 1962.390625 3163.738281 1951.53125 3139.410156 1929.800781 3131.640625 C 1905.960938 3123.121094 1882.128906 3114.609375 1858.289062 3106.089844 C 1835.988281 3098.121094 1811.648438 3110.898438 1805.539062 3133.769531 L 1684.449219 3586.96875 "/>
<path fill-rule="nonzero" fill="rgb(70.117188%, 58.396912%, 37.255859%)" fill-opacity="1" d="M 2093.128906 3365.820312 L 2079.03125 3365.820312 C 2060.398438 3365.820312 2045.289062 3350.710938 2045.289062 3332.078125 L 2045.289062 3200.859375 C 2045.289062 3182.230469 2060.398438 3167.121094 2079.03125 3167.121094 L 2093.128906 3167.121094 C 2098.058594 3167.910156 2107.46875 3170.078125 2116.988281 3177 C 2127.558594 3184.679688 2132.660156 3194.121094 2134.769531 3198.699219 C 2132.140625 3243.160156 2129.511719 3287.621094 2126.878906 3332.078125 C 2126.878906 3350.710938 2111.769531 3365.820312 2093.128906 3365.820312 "/>
<path fill-rule="nonzero" fill="rgb(70.117188%, 58.396912%, 37.255859%)" fill-opacity="1" d="M 2955.410156 3365.820312 L 2969.511719 3365.820312 C 2988.140625 3365.820312 3003.25 3350.710938 3003.25 3332.078125 L 3003.25 3200.859375 C 3003.25 3182.230469 2988.140625 3167.121094 2969.511719 3167.121094 L 2955.410156 3167.121094 C 2950.488281 3167.910156 2941.078125 3170.078125 2931.550781 3177 C 2920.980469 3184.679688 2915.878906 3194.121094 2913.769531 3198.699219 C 2916.398438 3243.160156 2919.03125 3287.621094 2921.671875 3332.078125 C 2921.671875 3350.710938 2936.769531 3365.820312 2955.410156 3365.820312 "/>
<path fill-rule="nonzero" fill="rgb(91.40625%, 72.068787%, 11.767578%)" fill-opacity="1" d="M 3653.289062 2115.738281 C 3630.828125 2083.238281 3601.429688 2032.300781 3583.550781 1964.410156 C 3570.570312 1915.101562 3567.511719 1871.441406 3567.78125 1838.28125 C 3540.628906 1391.089844 3685.539062 1415.539062 3173.289062 1422.191406 C 2660.539062 1424.910156 2215.769531 1425.398438 1653.910156 1419.5 C 1570.449219 1420.03125 1532.359375 1439.121094 1515.410156 1464.511719 C 1500.359375 1487.050781 1500.871094 1512.679688 1503.789062 1563.871094 C 1503.789062 1563.871094 1513.710938 1737.820312 1516.308594 1828.871094 C 1517.808594 1881.46875 1517.28125 1925.050781 1498.738281 1973.03125 C 1485.53125 2007.230469 1476.820312 2022.148438 1461.25 2039.25 C 1431 2072.460938 1402.160156 2074.460938 1410.691406 2100.988281 C 1421.058594 2139.03125 1497.890625 2195.449219 1592.761719 2272.539062 C 1694.128906 2350.441406 1771.820312 2437.859375 1775.980469 2439.96875 C 1871.660156 2508.269531 1933.808594 2499.480469 2088.660156 2501.339844 C 2211.328125 2498.851562 2428.808594 2531.578125 2488.710938 2533.878906 C 2558.851562 2527.300781 2569.121094 2540.109375 2658.371094 2527.101562 C 3084.96875 2468.121094 3150.601562 2545.21875 3298.109375 2437.519531 C 3308.539062 2428.75 3314.53125 2420.511719 3329.621094 2404.460938 C 3351.390625 2381.320312 3368.941406 2365.960938 3385.75 2350.671875 C 3418.410156 2320.941406 3517.910156 2233.050781 3653.289062 2115.738281 "/>
<path fill-rule="nonzero" fill="rgb(91.014099%, 64.646912%, 13.719177%)" fill-opacity="1" d="M 3698.929688 2192.058594 C 3613.078125 1866.03125 3324.171875 2198.089844 3295.648438 2345.460938 C 3268.859375 2435.628906 3159.230469 2408.96875 3089.148438 2416.898438 C 2996.929688 2424.109375 2721.578125 2427.300781 2722.828125 2429.109375 C 2570.128906 2417.078125 2381.230469 2425.78125 2310.648438 2429.148438 C 1452.359375 2407.71875 1957.851562 2422.359375 1575.230469 2091.488281 C 1247.460938 1902.570312 1334.160156 2528.671875 1401.941406 2692.460938 C 1444.859375 2850.269531 1644.589844 3164.328125 1705.289062 3189.429688 C 1725.640625 3199.691406 1748.570312 3204.730469 1772.898438 3206.699219 L 1772.898438 3207.910156 L 3282.21875 3207.910156 L 3282.21875 3206.269531 C 3305.011719 3204.609375 3324.808594 3200.21875 3339.910156 3191.191406 C 3418.78125 3136.738281 3429.839844 3095.921875 3492.820312 2998.808594 C 3677.308594 2747.128906 3741.621094 2368.101562 3698.929688 2192.058594 "/>
<path fill-rule="nonzero" fill="rgb(84.764099%, 59.179688%, 13.719177%)" fill-opacity="1" d="M 3271.160156 2499.96875 C 3205.878906 2327.121094 3073.789062 2333.46875 2907.261719 2323.789062 C 2753.621094 2306.480469 2627.859375 2313.210938 2423.230469 2313.488281 C 2186.089844 2312.628906 1948.191406 2328.089844 1883.371094 2373.628906 C 1695.179688 2505.328125 1829.390625 2752.839844 1915.769531 2859.210938 C 2000.941406 2925.671875 2138.070312 2883.78125 2216.628906 2893.269531 C 2409.300781 2902.769531 2544.910156 2906.609375 2782.011719 2896.699219 C 3019.25 2877.101562 3150.578125 2961.019531 3224.640625 2726.988281 C 3263.578125 2636.828125 3295.671875 2553.371094 3271.160156 2499.96875 "/>
<path fill-rule="nonzero" fill="rgb(91.40625%, 72.068787%, 11.767578%)" fill-opacity="1" d="M 3240.050781 2492.078125 C 3177.578125 2325.691406 3048.378906 2332.53125 2889.898438 2323.199219 C 2744.789062 2306.710938 2622.730469 2313.199219 2427.78125 2313.441406 C 2198.691406 2312.820312 1977.191406 2327.21875 1912.421875 2369.898438 C 1728.351562 2495.46875 1860.21875 2736.359375 1941.660156 2836.210938 C 2023.320312 2899.980469 2156.21875 2859.609375 2230.980469 2868.878906 C 2416.75 2878.070312 2546.289062 2881.570312 2773.460938 2872.019531 C 3002.679688 2853.421875 3125.53125 2934.75 3197.628906 2703.789062 C 3235.71875 2617.539062 3262.328125 2542.679688 3240.050781 2492.078125 "/>
<path fill-rule="nonzero" fill="rgb(90.625%, 93.75%, 96.875%)" fill-opacity="1" d="M 1674.621094 1967.761719 C 1650.769531 1923.230469 1610.988281 1882.300781 1556.550781 1886.480469 C 1510.398438 1890.03125 1464.53125 1911.730469 1427.558594 1938.789062 C 1353.71875 1992.851562 1300.609375 2070.710938 1262.359375 2152.960938 C 1222.730469 2238.199219 1197.980469 2328.929688 1183.441406 2421.628906 C 1171.660156 2496.679688 1173.578125 2523.238281 1160.160156 2706.210938 C 1153.839844 2792.390625 1147.691406 2862.441406 1143.570312 2907.28125 C 1134.140625 2965.300781 1135.921875 3011.378906 1139.28125 3042.410156 C 1145.699219 3101.679688 1161.03125 3109.101562 1167.171875 3111.039062 C 1190.898438 3118.550781 1220.621094 3081.789062 1222.929688 3078.871094 C 1226.800781 3051.328125 1233.050781 3012.691406 1243.289062 2966.578125 C 1245.640625 2955.960938 1248.789062 2941.789062 1253.359375 2924.289062 C 1276.730469 2834.921875 1310.808594 2752.988281 1357.738281 2673.601562 C 1405.46875 2592.839844 1464.320312 2526.46875 1527.171875 2456.910156 C 1590.5 2386.820312 1652.480469 2312.929688 1684.339844 2222.648438 C 1713.171875 2140.921875 1716.359375 2045.710938 1674.621094 1967.761719 "/>
<path fill-rule="nonzero" fill="rgb(90.625%, 93.75%, 96.875%)" fill-opacity="1" d="M 1179.820312 2078.910156 C 1196.140625 1971.5 1220.871094 1861.070312 1205.039062 1752.238281 C 1193.25 1671.21875 1138.140625 1570.230469 1042.96875 1575.511719 C 943.667969 1581.011719 895.875 1685.851562 880.113281 1770.878906 C 860.726562 1875.46875 874.445312 1981.320312 893.875 2084.820312 C 913.484375 2189.25 935.167969 2293.230469 953.433594 2397.921875 C 972.113281 2504.980469 988.910156 2612.371094 1003.808594 2720.019531 C 1018.460938 2825.800781 1027.878906 2932.289062 1042.710938 3038.011719 C 1046.191406 3062.851562 1051.199219 3087.269531 1060.019531 3110.808594 C 1067.28125 3130.210938 1085.96875 3143.46875 1107.238281 3137.621094 C 1125.871094 3132.5 1141.359375 3109.921875 1134.050781 3090.398438 C 1129.078125 3077.121094 1125.378906 3063.679688 1122.460938 3050.121094 C 1122.75 3047.929688 1122.828125 3045.691406 1122.570312 3043.410156 C 1097.871094 2827.960938 1110.058594 2610.589844 1135.460938 2395.808594 C 1147.980469 2289.871094 1163.800781 2184.359375 1179.820312 2078.910156 "/>
<path fill-rule="nonzero" fill="rgb(90.625%, 93.75%, 96.875%)" fill-opacity="1" d="M 1038.46875 3066 C 1027.988281 2979.660156 995.574219 2898.699219 995.574219 2898.699219 C 950.199219 2785.351562 960.984375 2803.308594 944.976562 2769.308594 C 900.023438 2673.828125 883.746094 2677.070312 867.769531 2622.859375 C 851.839844 2568.789062 864.105469 2509.78125 858.890625 2453.851562 C 853.597656 2397.070312 839.140625 2339.171875 805.601562 2292.078125 C 774.800781 2248.839844 731.605469 2213.070312 679.214844 2200.019531 C 630.105469 2187.789062 573.675781 2196.210938 532.457031 2226.449219 C 485.292969 2261.050781 462.640625 2316.558594 466.632812 2374.578125 C 470.835938 2435.609375 499.460938 2489.53125 527.800781 2542.460938 C 554.59375 2592.5 581.871094 2642.570312 615.59375 2688.371094 C 648.210938 2732.648438 686.023438 2771.050781 727.535156 2806.980469 C 766.828125 2840.988281 807.757812 2873.230469 844.640625 2909.921875 C 869.964844 2935.121094 961.230469 3100.269531 976.269531 3108.898438 C 987.078125 3115.089844 995.015625 3117.890625 1004.148438 3117.480469 C 1006.488281 3117.371094 1020.5 3116.53125 1029.890625 3106.75 C 1041.488281 3094.679688 1039.648438 3075.648438 1038.46875 3066 "/>
<path fill-rule="nonzero" fill="rgb(82.8125%, 85.9375%, 88.671875%)" fill-opacity="1" d="M 1199.761719 3184.378906 C 1190.96875 3107.089844 1190.96875 3028.589844 1202.480469 2951.570312 C 1208.03125 2914.460938 1215.851562 2877.679688 1223.339844 2840.929688 C 1231.75 2799.679688 1240.871094 2758.578125 1250.710938 2717.648438 C 1269.238281 2640.621094 1288.710938 2563.621094 1311.851562 2487.828125 C 1331.898438 2422.140625 1356.070312 2358.210938 1387.21875 2296.949219 C 1425.289062 2222.101562 1471.820312 2151.609375 1524.441406 2086.210938 C 1532.308594 2076.421875 1540.328125 2066.738281 1548.460938 2057.171875 C 1553.429688 2051.308594 1544.980469 2042.78125 1539.96875 2048.679688 C 1482.828125 2116 1431.75 2188.589844 1389.738281 2266.320312 C 1357.78125 2325.480469 1331.699219 2387.378906 1310.808594 2451.269531 C 1284.890625 2530.53125 1264.511719 2611.550781 1244.511719 2692.460938 C 1225.320312 2770.039062 1208.011719 2848.371094 1194.351562 2927.121094 C 1181.738281 2999.851562 1178.570312 3073.839844 1184.21875 3147.429688 C 1185.171875 3159.769531 1186.359375 3172.089844 1187.761719 3184.378906 C 1188.628906 3191.96875 1200.640625 3192.058594 1199.761719 3184.378906 "/>
<path fill-rule="nonzero" fill="rgb(82.8125%, 85.9375%, 88.671875%)" fill-opacity="1" d="M 1092.710938 3112.53125 C 1081.898438 3004.109375 1070.820312 2895.710938 1060.359375 2787.25 C 1051.511719 2695.53125 1042.75 2603.800781 1034.929688 2512 C 1027.988281 2430.429688 1021.949219 2348.730469 1019.460938 2266.890625 C 1017.238281 2193.960938 1018.101562 2120.949219 1023.050781 2048.140625 C 1028.53125 1967.648438 1038.75 1887.519531 1053.339844 1808.171875 C 1055.710938 1795.289062 1058.199219 1782.429688 1060.789062 1769.601562 C 1062.308594 1762.050781 1050.738281 1758.828125 1049.210938 1766.398438 C 1032.511719 1849.269531 1020.371094 1933.058594 1013.378906 2017.308594 C 1007.300781 2090.609375 1005.308594 2164.160156 1006.730469 2237.691406 C 1008.28125 2317.679688 1013.578125 2397.550781 1020.050781 2477.28125 C 1027.511719 2569.410156 1036.421875 2661.421875 1045.128906 2753.429688 C 1055.191406 2859.820312 1066.109375 2966.121094 1076.710938 3072.460938 C 1078.039062 3085.820312 1079.371094 3099.171875 1080.710938 3112.53125 C 1081.460938 3120.148438 1093.46875 3120.21875 1092.710938 3112.53125 "/>
<path fill-rule="nonzero" fill="rgb(82.8125%, 85.9375%, 88.671875%)" fill-opacity="1" d="M 610.226562 2376.808594 C 614.582031 2430.050781 632.757812 2480.878906 657.613281 2527.859375 C 683.679688 2577.128906 717.050781 2621.988281 750.648438 2666.300781 C 783.992188 2710.269531 817.011719 2754.308594 846.078125 2801.28125 C 874.183594 2846.699219 899.238281 2894 921.039062 2942.761719 C 942.890625 2991.628906 961.371094 3042.03125 976.40625 3093.410156 C 978.234375 3099.660156 980.007812 3105.929688 981.738281 3112.210938 C 983.785156 3119.640625 995.367188 3116.488281 993.308594 3109.019531 C 979.105469 3057.421875 961.414062 3006.859375 940.507812 2957.601562 C 919.722656 2908.640625 895.679688 2861.050781 868.582031 2815.28125 C 840.675781 2768.148438 809.078125 2723.648438 776.019531 2680.019531 C 742.402344 2635.648438 708.085938 2591.53125 679.976562 2543.371094 C 653.351562 2497.75 632.191406 2448.238281 624.359375 2395.710938 C 623.425781 2389.441406 622.742188 2383.128906 622.226562 2376.808594 C 621.601562 2369.160156 609.59375 2369.101562 610.226562 2376.808594 "/>
<path fill-rule="nonzero" fill="rgb(65.818787%, 80.076599%, 92.576599%)" fill-opacity="1" d="M 830.117188 3066 C 801.808594 3113.308594 785.378906 3169.628906 785.378906 3230.078125 C 785.378906 3397.699219 911.65625 3533.578125 1067.429688 3533.578125 C 1223.199219 3533.578125 1349.480469 3397.699219 1349.480469 3230.078125 C 1349.480469 3169.628906 1333.050781 3113.308594 1304.738281 3066 L 830.117188 3066 "/>
<path fill-rule="nonzero" fill="rgb(96.875%, 67.381287%, 54.101562%)" fill-opacity="1" d="M 2411.789062 1131.441406 C 2382.710938 1150.429688 2433.859375 1246.578125 2395.230469 1278.589844 C 2371.949219 1297.878906 2352.160156 1303.570312 2352.160156 1303.570312 C 2338.609375 1307.460938 2328.289062 1307.21875 2327.109375 1311.859375 C 2325.800781 1317 2337.570312 1320.710938 2356.679688 1336.171875 C 2372.339844 1348.851562 2372.460938 1352.71875 2389.601562 1365.890625 C 2395.851562 1370.691406 2402.730469 1375.378906 2411.410156 1380.660156 C 2475.539062 1419.738281 2465.089844 1445.328125 2499.808594 1454.808594 C 2543.511719 1466.738281 2556.671875 1425.28125 2682.679688 1377.679688 C 2720.648438 1363.328125 2752.441406 1356.519531 2756.710938 1335.609375 C 2758.710938 1325.769531 2754.320312 1314.039062 2746.710938 1306.75 C 2735.53125 1296.039062 2721.230469 1297.601562 2701.199219 1295.21875 C 2689.121094 1293.78125 2653.871094 1289.601562 2637.039062 1274.929688 C 2600.480469 1243.039062 2643.800781 1155.421875 2620.261719 1142.941406 C 2608.078125 1136.488281 2595.828125 1159.96875 2565.199219 1168.558594 C 2498.558594 1187.261719 2438.878906 1113.738281 2411.789062 1131.441406 "/>
<path fill-rule="nonzero" fill="rgb(93.75%, 60.351562%, 47.068787%)" fill-opacity="1" d="M 2689.53125 1013.609375 C 2689.238281 1100.71875 2627.621094 1159.769531 2613.730469 1173.089844 C 2592.039062 1193.878906 2562.378906 1222.300781 2520.699219 1222.308594 C 2480.710938 1222.320312 2450.539062 1196.179688 2422.75 1172.109375 C 2406.960938 1158.429688 2385.230469 1139.21875 2369.429688 1106.398438 C 2369.429688 1106.398438 2349.148438 1064.859375 2351.871094 1013.609375 C 2356.511719 926.160156 2422.019531 804.910156 2520.699219 804.910156 C 2617.070312 804.910156 2689.839844 918.550781 2689.53125 1013.609375 "/>
<path fill-rule="nonzero" fill="rgb(96.875%, 67.381287%, 54.101562%)" fill-opacity="1" d="M 2689.53125 994.460938 C 2689.238281 1081.570312 2627.621094 1140.621094 2613.730469 1153.941406 C 2592.039062 1174.730469 2562.378906 1203.148438 2520.699219 1203.160156 C 2480.710938 1203.171875 2450.539062 1177.03125 2422.75 1152.960938 C 2406.960938 1139.28125 2385.230469 1120.070312 2369.429688 1087.25 C 2369.429688 1087.25 2349.148438 1045.710938 2351.871094 994.460938 C 2356.511719 907.011719 2422.019531 785.761719 2520.699219 785.761719 C 2617.070312 785.761719 2689.839844 899.410156 2689.53125 994.460938 "/>
<path fill-rule="nonzero" fill="rgb(11.767578%, 10.984802%, 11.767578%)" fill-opacity="1" d="M 2715.96875 867.261719 C 2736.308594 863.28125 2775.671875 922.839844 2786.851562 986.378906 C 2799.699219 1059.371094 2767.011719 1090.101562 2792.761719 1146.839844 C 2797.46875 1157.21875 2813.949219 1177.058594 2846.898438 1216.730469 C 2884.371094 1261.839844 2910.019531 1300.378906 2914.828125 1307.300781 C 2987.921875 1412.660156 2941.601562 1613.421875 2916.890625 1614.339844 C 2896.191406 1615.121094 2900.96875 1475.269531 2792.761719 1398.851562 C 2788.578125 1395.898438 2784.941406 1393.550781 2782.199219 1391.828125 C 2782.199219 1391.828125 2779.679688 1390.308594 2777.101562 1388.871094 C 2762.769531 1380.921875 2705.929688 1372.871094 2678.929688 1343.140625 C 2675.121094 1338.949219 2674.480469 1337.371094 2671.171875 1332.46875 C 2667.46875 1327 2661.570312 1319.390625 2658.589844 1315.621094 C 2657.398438 1314.121094 2656.449219 1312.839844 2655.558594 1311.558594 C 2653.300781 1308.28125 2646.96875 1299.371094 2640.628906 1286.300781 C 2636.621094 1278.011719 2636.621094 1276.398438 2633.449219 1271.929688 C 2632.03125 1269.929688 2630.339844 1267.871094 2628.070312 1264.160156 C 2626.121094 1260.980469 2624.75 1258.230469 2623.878906 1256.378906 C 2618.578125 1246.578125 2611.769531 1231.398438 2608.921875 1212.101562 C 2599.269531 1146.878906 2649.511719 1112.371094 2677.578125 1032.648438 C 2712.699219 932.910156 2695.269531 871.308594 2715.96875 867.261719 "/>
<path fill-rule="nonzero" fill="rgb(11.767578%, 10.984802%, 11.767578%)" fill-opacity="1" d="M 2508.261719 669.441406 C 2480.210938 651.910156 2420.898438 697.199219 2405.878906 708.679688 C 2369.128906 736.730469 2349.96875 767.101562 2328.101562 802.46875 C 2304.808594 840.160156 2281.140625 878.460938 2271.988281 932.640625 C 2263.421875 983.410156 2278.148438 985.601562 2266.078125 1030.261719 C 2253.859375 1075.511719 2236.839844 1080.308594 2223.75 1131.71875 C 2212.609375 1175.488281 2222.980469 1179.75 2209.96875 1206.371094 C 2206.730469 1213.011719 2203.53125 1217.628906 2201.671875 1220.261719 C 2191.058594 1235.199219 2175.71875 1247.78125 2170.140625 1252.199219 C 2160.5 1262.730469 2149.050781 1276.320312 2137.28125 1292.949219 C 2129.808594 1303.480469 2073.660156 1384.628906 2067.429688 1485.191406 C 2066.890625 1494 2064.558594 1531.621094 2071.710938 1533.039062 C 2074.671875 1533.621094 2078.148438 1527.808594 2079.308594 1526 C 2093.640625 1503.480469 2135.488281 1497.160156 2158.929688 1483.96875 C 2259.851562 1427.179688 2286.238281 1425.800781 2307.429688 1391.089844 C 2317.648438 1374.359375 2324.171875 1364.359375 2324.171875 1297.300781 C 2324.171875 1243.410156 2327.691406 1189.109375 2343.859375 1108.75 C 2352.96875 1063.429688 2378.078125 1025.839844 2385.730469 1013.691406 C 2387.078125 1011.558594 2392.550781 1003.039062 2399.339844 990.890625 C 2405.820312 979.289062 2407.078125 975.871094 2410.601562 969.78125 C 2411.929688 967.46875 2421.988281 950.339844 2437.328125 937.410156 C 2451.660156 925.339844 2455.039062 930.019531 2480.488281 915.359375 C 2502.929688 902.441406 2514.5 895.769531 2519.429688 883 C 2521.300781 878.140625 2526.320312 861.730469 2528.929688 853.199219 C 2529.761719 850.46875 2530.449219 848.210938 2530.898438 846.691406 C 2532.46875 837.769531 2529.21875 827.738281 2524.988281 789.070312 C 2515.328125 700.71875 2524.269531 679.441406 2508.261719 669.441406 "/>
<path fill-rule="nonzero" fill="rgb(100%, 100%, 100%)" fill-opacity="1" d="M 3042.160156 1973.851562 C 2986.761719 2105.691406 2882.671875 2207.851562 2880.058594 2205.769531 C 2879.988281 2205.710938 2880 2205.609375 2880 2205.550781 C 2889.21875 2064.238281 2922.269531 1989.648438 2907.570312 1913.171875 C 2892.648438 1835.550781 2831.410156 1788.589844 2826.851562 1785.199219 C 2811 1773.398438 2776.328125 1751.570312 2551.210938 1744.839844 C 2482.671875 1742.789062 2448.398438 1741.761719 2407.480469 1744.839844 C 2282.839844 1754.199219 2220.519531 1758.890625 2187.949219 1792.089844 C 2111.601562 1869.910156 2223.089844 2011.941406 2137.738281 2187.828125 C 2137.148438 2189.050781 2135.96875 2189.621094 2135.96875 2189.621094 C 2128.25 2195.820312 2112.929688 2190.671875 2096.738281 2181.921875 C 2076.75 2171.121094 2062.519531 2161.851562 2052.210938 2152.578125 C 2011.441406 2115.929688 2000.140625 2111.441406 1984.039062 2098.21875 C 1976.210938 2091.789062 1971.308594 2086.71875 1961.671875 2077.058594 C 1938.71875 2054.058594 1926.53125 2041.671875 1914.761719 2021.710938 C 1911.140625 2015.558594 1909.328125 2012.480469 1907.730469 2008.570312 C 1904 1999.460938 1900.671875 1986.019531 1905.710938 1940.191406 C 1906.761719 1930.671875 1907.210938 1925.019531 1908.460938 1918.449219 C 1914.390625 1887.460938 1929.5 1857.640625 1967.300781 1763.710938 C 1987.78125 1712.808594 1990.75 1703.808594 2002.949219 1676.921875 C 2020.140625 1639.039062 2036.429688 1608.019531 2048.878906 1585.53125 C 2048.910156 1585.480469 2048.941406 1585.421875 2048.960938 1585.359375 C 2078.890625 1511.070312 2090.671875 1476.679688 2094.878906 1460.121094 C 2094.878906 1460.121094 2099.261719 1440.851562 2115.351562 1407.941406 C 2116.449219 1405.710938 2117.398438 1404.070312 2118.238281 1402.980469 C 2119.300781 1401.601562 2120.410156 1400.269531 2121.550781 1398.988281 C 2123.949219 1395.898438 2126.609375 1392.859375 2129.609375 1389.820312 C 2137.878906 1381.421875 2146.980469 1374.738281 2154.140625 1369.46875 C 2164.238281 1362.050781 2179.800781 1351.671875 2212.191406 1336.558594 C 2219.308594 1333.230469 2245.011719 1321.398438 2283.988281 1307.839844 C 2338.910156 1288.738281 2338.328125 1298.261719 2364.179688 1284.5 C 2365.089844 1284.019531 2366.011719 1283.511719 2366.941406 1283 C 2375.210938 1278.441406 2383.730469 1273.148438 2391.28125 1269.828125 C 2392.339844 1269.359375 2393.53125 1270.140625 2393.511719 1271.300781 C 2393.5 1271.609375 2393.5 1271.921875 2393.5 1272.230469 C 2393.5 1287.179688 2400.390625 1301.109375 2412.261719 1312.808594 C 2412.269531 1312.820312 2412.269531 1312.820312 2412.28125 1312.820312 C 2432.851562 1335.628906 2470.738281 1350.921875 2514.070312 1350.921875 C 2579.351562 1350.921875 2632.261719 1316.230469 2632.261719 1273.429688 C 2632.261719 1273.390625 2632.261719 1273.359375 2632.261719 1273.320312 C 2632.25 1272.101562 2633.558594 1271.320312 2634.628906 1271.921875 C 2634.628906 1271.929688 2634.640625 1271.929688 2634.648438 1271.929688 C 2639.609375 1274.71875 2646.820312 1278.179688 2656.800781 1281.160156 C 2657.171875 1281.269531 2657.550781 1281.378906 2657.929688 1281.488281 C 2657.96875 1281.5 2658.011719 1281.519531 2658.050781 1281.53125 C 2685.359375 1292.050781 2720.589844 1296.601562 2817.160156 1332.371094 C 2839.289062 1340.570312 2845.660156 1343.378906 2853.660156 1349.128906 C 2874.949219 1364.429688 2883.941406 1383.449219 2899.101562 1416.660156 C 2899.128906 1416.71875 2899.148438 1416.78125 2899.171875 1416.839844 C 2906.800781 1441.019531 2918.558594 1476.921875 2934.449219 1520.269531 C 2939.96875 1535.351562 2942.390625 1541.480469 2959.679688 1586.53125 C 2991.980469 1670.660156 3008.128906 1712.71875 3008.898438 1714.910156 C 3008.898438 1714.910156 3032.148438 1781.859375 3053.039062 1826.140625 C 3053.558594 1827.25 3054.089844 1828.339844 3054.089844 1828.339844 C 3054.671875 1829.53125 3055.050781 1830.261719 3055.320312 1830.828125 C 3080.390625 1882.851562 3042.160156 1973.851562 3042.160156 1973.851562 "/>
<path fill-rule="nonzero" fill="rgb(93.75%, 93.359375%, 92.96875%)" fill-opacity="1" d="M 2657.371094 1289.289062 C 2657.371094 1340.179688 2592.28125 1381.441406 2511.980469 1381.441406 C 2431.679688 1381.441406 2366.589844 1340.179688 2366.589844 1289.289062 C 2366.589844 1287.179688 2366.710938 1285.078125 2366.941406 1283 C 2376.070312 1277.96875 2385.519531 1272.039062 2393.621094 1268.851562 C 2393.539062 1269.96875 2393.5 1271.101562 2393.5 1272.230469 C 2393.5 1287.179688 2400.390625 1301.109375 2412.261719 1312.808594 C 2412.269531 1312.820312 2412.269531 1312.820312 2412.28125 1312.820312 C 2432.851562 1335.628906 2470.738281 1350.921875 2514.070312 1350.921875 C 2579.351562 1350.921875 2632.261719 1316.230469 2632.261719 1273.429688 C 2632.261719 1272.460938 2632.21875 1271.5 2632.171875 1270.539062 C 2633.019531 1271.011719 2633.851562 1271.488281 2634.648438 1271.929688 C 2639.609375 1274.71875 2646.820312 1278.179688 2656.800781 1281.160156 C 2657.171875 1283.839844 2657.371094 1286.550781 2657.371094 1289.289062 "/>
<path fill-rule="nonzero" fill="rgb(96.875%, 67.381287%, 54.101562%)" fill-opacity="1" d="M 2297.980469 2715.269531 C 2303.851562 2721.179688 2311.71875 2715.179688 2348.410156 2714.148438 C 2362.75 2713.75 2361.210938 2714.671875 2387.121094 2714.441406 C 2407.109375 2714.261719 2421.089844 2713.589844 2436.851562 2707.449219 C 2445.609375 2704.039062 2450.039062 2702.230469 2452.519531 2697.628906 C 2459.359375 2684.898438 2446.859375 2659.789062 2427.941406 2650.019531 C 2414.390625 2643.03125 2408.109375 2649.359375 2369.328125 2649.160156 C 2337.878906 2649 2334.148438 2644.789062 2323.78125 2649.691406 C 2298.230469 2661.78125 2286.441406 2703.671875 2297.980469 2715.269531 "/>
<path fill-rule="nonzero" fill="rgb(10.205078%, 30.200195%, 53.709412%)" fill-opacity="1" d="M 2055.421875 2224.789062 C 2064.308594 2202.980469 2104.449219 2196.828125 2184.378906 2185.421875 C 2280.71875 2171.660156 2324 2178.230469 2425.558594 2176.558594 C 2579.789062 2174.019531 2642.109375 2156.199219 2763.21875 2182.460938 C 2840.199219 2199.160156 2850.5 2214.050781 2853.789062 2223.808594 C 2872.589844 2279.589844 2735.03125 2382.851562 2618.511719 2435.460938 C 2558.960938 2462.359375 2503.609375 2487.351562 2429.5 2487.640625 C 2219.648438 2488.460938 2028.609375 2290.550781 2055.421875 2224.789062 "/>
<path fill-rule="nonzero" fill="rgb(9.008789%, 27.050781%, 52.929688%)" fill-opacity="1" d="M 2470.851562 2468.929688 C 2492.441406 2465.730469 2506.488281 2446.070312 2509.238281 2442.351562 C 2534.5 2408.238281 2611.550781 2361.628906 2723.851562 2293.710938 C 2734.679688 2287.148438 2766.179688 2266.371094 2829.179688 2224.789062 C 2851.019531 2210.378906 2872.710938 2195.949219 2870.53125 2191.320312 C 2868.5 2187.019531 2846.789062 2193.300781 2840.011719 2195.261719 C 2791.46875 2209.308594 2758.148438 2234.300781 2748.460938 2241.53125 C 2714.671875 2266.738281 2679.078125 2289.449219 2645.089844 2314.378906 C 2591.371094 2353.78125 2542.128906 2399.171875 2487.578125 2437.429688 C 2478.671875 2443.691406 2454.171875 2460.660156 2457.070312 2466.96875 C 2458.789062 2470.71875 2469.53125 2469.128906 2470.851562 2468.929688 "/>
<path fill-rule="nonzero" fill="rgb(9.008789%, 27.050781%, 52.929688%)" fill-opacity="1" d="M 2107.589844 2231.691406 C 2085.578125 2204.519531 2084.089844 2195.261719 2086.921875 2191.320312 C 2097.03125 2177.28125 2173.949219 2215.140625 2216.859375 2239.558594 C 2241.238281 2253.429688 2270.910156 2272.230469 2363.539062 2347.851562 C 2437.890625 2408.539062 2495.191406 2455.320312 2490.539062 2462.039062 C 2487.730469 2466.101562 2463.890625 2453.511719 2428.519531 2435.460938 C 2261.628906 2350.320312 2175.878906 2315.960938 2107.589844 2231.691406 "/>
<path fill-rule="nonzero" fill="rgb(10.205078%, 28.24707%, 58.789062%)" fill-opacity="1" d="M 2758.089844 2252.96875 C 2758.089844 2252.96875 2868.449219 2182.058594 3014.378906 2132.78125 C 3014.378906 2132.78125 3110.851562 2100.199219 3175.699219 2125.371094 C 3207.191406 2137.578125 3228.859375 2158.839844 3228.859375 2158.839844 C 3230.878906 2160.820312 3244.691406 2174.539062 3255.441406 2194.28125 C 3285.910156 2250.179688 3270.898438 2315.761719 3267.679688 2329.820312 C 3254.761719 2386.308594 3224.140625 2422.5 3202.730469 2447.058594 C 3140.53125 2518.359375 3064.78125 2546.511719 3022.21875 2562.320312 C 2977.671875 2578.878906 2934.078125 2587.480469 2921.5 2589.910156 C 2890.800781 2595.851562 2867.839844 2598.011719 2858.671875 2598.78125 C 2845.140625 2599.910156 2833.730469 2600.378906 2825.5 2600.578125 C 2818.96875 2600.730469 2814.550781 2600.730469 2812.941406 2600.75 C 2787.28125 2600.96875 2756.089844 2612.050781 2754.359375 2612.660156 C 2658.589844 2646.671875 2619.140625 2652.960938 2534.710938 2690.398438 C 2524.660156 2694.851562 2501.769531 2706.671875 2468.890625 2717 C 2447.550781 2723.710938 2429.558594 2727.578125 2417.691406 2729.808594 C 2415.019531 2727.980469 2411.101562 2725.058594 2406.859375 2720.949219 C 2390.621094 2705.199219 2386.21875 2687.949219 2381.261719 2674.679688 C 2368.921875 2641.628906 2358.460938 2647.671875 2338.929688 2605.769531 C 2327.039062 2580.238281 2321.191406 2567.21875 2326.28125 2554.441406 C 2331.878906 2540.371094 2345.960938 2537.820312 2376.140625 2521.929688 C 2395.269531 2511.871094 2412.621094 2498.808594 2430.988281 2487.449219 C 2497.789062 2446.140625 2628.210938 2336.601562 2758.089844 2252.96875 "/>
<path fill-rule="nonzero" fill="rgb(11.767578%, 10.984802%, 11.767578%)" fill-opacity="1" d="M 2497.429688 679.011719 C 2517.128906 662.191406 2543.96875 663.140625 2559.449219 663.691406 C 2621.039062 665.871094 2663.691406 708.410156 2684.46875 729.730469 C 2684.730469 730 2685.261719 730.53125 2686.019531 731.320312 C 2727.460938 774.058594 2744.761719 823.609375 2765.78125 901.859375 C 2794.738281 1009.71875 2789.789062 1019.78125 2783.648438 1024.359375 C 2770.480469 1034.191406 2745.398438 1023.609375 2702.191406 1005.378906 C 2702.191406 1005.378906 2665.511719 989.988281 2642.140625 968.050781 C 2619.351562 946.671875 2624.078125 943.988281 2603.75 924.980469 C 2576.019531 899.058594 2562.53125 899.660156 2533.851562 872.339844 C 2529.351562 868.050781 2515.878906 855.121094 2505.300781 839.800781 C 2473.519531 793.789062 2458.21875 712.449219 2497.429688 679.011719 "/>
<path fill-rule="nonzero" fill="rgb(84.764099%, 83.59375%, 81.639099%)" fill-opacity="1" d="M 2025.878906 2528.980469 C 2000.058594 2531.238281 1986.320312 2567.921875 1971.738281 2606.75 C 1956.460938 2647.449219 1956.949219 2677.558594 1957.449219 2707.988281 C 1957.789062 2728.699219 1960.070312 2742.980469 1969.769531 2755.398438 C 1978.699219 2766.839844 1989.890625 2771.769531 1998.320312 2775.089844 C 2032.398438 2788.53125 2079.410156 2784.53125 2085.929688 2766.230469 C 2087.769531 2761.089844 2085.488281 2757.378906 2076.089844 2737.679688 C 2060.96875 2705.980469 2053.398438 2690.128906 2051.480469 2682.558594 C 2050.210938 2677.558594 2040.488281 2637.28125 2061.320312 2607.738281 C 2070.261719 2595.070312 2077.851562 2594.878906 2080.03125 2585.101562 C 2085.050781 2562.558594 2053.011719 2526.609375 2025.878906 2528.980469 "/>
<path fill-rule="nonzero" fill="rgb(96.875%, 67.381287%, 54.101562%)" fill-opacity="1" d="M 2547.648438 2740.179688 C 2561.949219 2758.921875 2578.269531 2744.519531 2656.789062 2766.988281 C 2698.371094 2778.890625 2720.101562 2781.128906 2735.191406 2781.71875 C 2739.28125 2781.878906 2807.460938 2784.109375 2814.421875 2761.308594 C 2817.429688 2751.429688 2807.378906 2742.011719 2809.089844 2712.851562 C 2809.269531 2709.898438 2809.5 2707.78125 2809.710938 2705.929688 C 2814.628906 2661.960938 2838 2630.398438 2828.199219 2616.601562 C 2820.480469 2605.738281 2800.71875 2617.859375 2756.761719 2612.210938 C 2738.621094 2609.878906 2740.800781 2607.539062 2707.039062 2599.421875 C 2660.929688 2588.328125 2637.429688 2582.949219 2615.558594 2591 C 2598.179688 2597.398438 2588.171875 2608.769531 2577.5 2620.878906 C 2544.269531 2658.621094 2529 2715.730469 2547.648438 2740.179688 "/>
<path fill-rule="nonzero" fill="rgb(92.96875%, 91.796875%, 88.671875%)" fill-opacity="1" d="M 2094.789062 2552.609375 C 2072.761719 2556.179688 2059.511719 2576.269531 2044.589844 2598.878906 C 2036.878906 2610.558594 2006.449219 2659.519531 2016.039062 2720.949219 C 2018.78125 2738.5 2021.71875 2755.730469 2035.730469 2767.21875 C 2047.980469 2777.269531 2063.101562 2778.308594 2098.730469 2775.089844 C 2145.421875 2770.878906 2176.441406 2768.070312 2222.769531 2753.441406 C 2283 2734.410156 2294.25 2730.828125 2302.511719 2720.949219 C 2313.648438 2707.621094 2328.550781 2679.921875 2319.238281 2656.960938 C 2304.691406 2621.039062 2249.511719 2642.628906 2174.53125 2596.910156 C 2134.019531 2572.199219 2121.289062 2548.308594 2094.789062 2552.609375 "/>
<path fill-rule="nonzero" fill="rgb(11.767578%, 10.984802%, 11.767578%)" fill-opacity="1" d="M 2686.441406 1135.03125 C 2671.921875 1142.558594 2684.589844 1194.878906 2697.269531 1247.25 C 2709.601562 1298.210938 2717.511719 1304.140625 2732.710938 1359.480469 C 2752.570312 1431.839844 2753.640625 1474.851562 2761.261719 1474.660156 C 2767.820312 1474.488281 2775.699219 1442.28125 2774.050781 1411.648438 C 2772.25 1378.128906 2760.390625 1371.828125 2762.238281 1338.800781 C 2762.941406 1326.261719 2764.71875 1326.101562 2769.128906 1293.519531 C 2771.53125 1275.828125 2773.699219 1255.96875 2774.050781 1249.21875 C 2776.878906 1194.710938 2705.96875 1124.890625 2686.441406 1135.03125 "/>
<path fill-rule="nonzero" fill="rgb(93.75%, 93.359375%, 92.96875%)" fill-opacity="1" d="M 2063.359375 1888.550781 C 2060.800781 1894.191406 2045.179688 1886.078125 2021.320312 1890.730469 C 2015.820312 1891.800781 1997.851562 1895.519531 1982.539062 1909.300781 C 1974.671875 1916.378906 1970.351562 1923.558594 1969.441406 1922.949219 C 1968.398438 1922.238281 1973.050781 1912.109375 1980.359375 1903.289062 C 1982.511719 1900.691406 1986.921875 1895.449219 1994.011719 1890.730469 C 2000.871094 1886.160156 2004.050781 1886.210938 2024.589844 1880.351562 C 2044.5 1874.679688 2048.921875 1872.53125 2054.628906 1875.441406 C 2060.210938 1878.289062 2064.988281 1884.960938 2063.359375 1888.550781 "/>
<path fill-rule="nonzero" fill="rgb(93.75%, 93.359375%, 92.96875%)" fill-opacity="1" d="M 2836.960938 1850.289062 C 2841.578125 1860.460938 2869.730469 1845.839844 2912.761719 1854.230469 C 2922.660156 1856.160156 2955.050781 1862.871094 2982.648438 1887.699219 C 2996.851562 1900.46875 3004.640625 1913.421875 3006.28125 1912.308594 C 3008.160156 1911.03125 2999.761719 1892.769531 2986.589844 1876.871094 C 2982.710938 1872.191406 2974.769531 1862.738281 2961.980469 1854.230469 C 2949.609375 1845.988281 2943.890625 1846.070312 2906.851562 1835.519531 C 2870.960938 1825.289062 2862.988281 1821.421875 2852.710938 1826.660156 C 2842.628906 1831.800781 2834.019531 1843.820312 2836.960938 1850.289062 "/>
<path fill-rule="nonzero" fill="rgb(15.696716%, 14.892578%, 15.696716%)" fill-opacity="1" d="M 2737.121094 1490.109375 C 2740.089844 1478.351562 2740.601562 1469.5 2740.601562 1469.5 C 2743.078125 1426.421875 2744.320312 1404.878906 2743.921875 1394.179688 C 2742.53125 1357.050781 2741.671875 1331.800781 2732.878906 1300.710938 C 2724.230469 1270.148438 2708.78125 1242.449219 2694.480469 1214.289062 C 2680.171875 1186.101562 2666.980469 1156.300781 2664.808594 1124.351562 C 2663.730469 1108.480469 2665.960938 1093.140625 2670.878906 1078.058594 C 2675.46875 1064.019531 2681.429688 1050.160156 2682.800781 1035.320312 C 2683.140625 1031.589844 2683.140625 1027.851562 2682.800781 1024.128906 C 2682.699219 1022.988281 2680.910156 1022.96875 2681.011719 1024.128906 C 2682.410156 1039.558594 2677.199219 1054.289062 2672.199219 1068.640625 C 2667.179688 1083.039062 2663.128906 1097.339844 2662.75 1112.691406 C 2661.988281 1143.878906 2672.980469 1174.039062 2686.28125 1201.761719 C 2700.109375 1230.589844 2716.800781 1258.191406 2727.199219 1288.558594 C 2737.511719 1318.648438 2741.511719 1350.460938 2742.070312 1382.160156 C 2742.628906 1414.238281 2739.820312 1446.261719 2736.558594 1478.148438 C 2736.210938 1481.578125 2735.78125 1484.410156 2735.320312 1490.109375 C 2734.96875 1494.398438 2734.96875 1495.789062 2735.210938 1495.828125 C 2735.648438 1495.910156 2736.789062 1491.390625 2737.121094 1490.109375 "/>
<path fill-rule="nonzero" fill="rgb(96.875%, 67.381287%, 54.101562%)" fill-opacity="1" d="M 2719.910156 964.71875 C 2719.339844 998.601562 2687.589844 1030.539062 2670.691406 1025.75 C 2655.121094 1021.339844 2651.519531 985.601562 2651.980469 968.660156 C 2652.421875 952.671875 2656.75 943.421875 2657.890625 941.089844 C 2662.769531 931.109375 2675.480469 912.660156 2689.878906 913.53125 C 2706.878906 914.550781 2720.289062 942.140625 2719.910156 964.71875 "/>
<path fill-rule="nonzero" fill="rgb(9.008789%, 27.050781%, 52.929688%)" fill-opacity="1" d="M 2664.78125 2598.878906 C 2668.578125 2597.691406 2669.808594 2584.359375 2664.78125 2574.269531 C 2661.289062 2567.261719 2655.429688 2563.140625 2646.078125 2556.550781 C 2640.988281 2552.960938 2636.488281 2550.378906 2633.28125 2548.671875 C 2628.21875 2546.390625 2620.601562 2542.789062 2611.621094 2537.839844 C 2592.988281 2527.589844 2579.679688 2517.730469 2556.488281 2500.441406 C 2543.421875 2490.679688 2536.058594 2484.800781 2526.910156 2478.890625 C 2522.328125 2475.941406 2519.289062 2474.25 2516.878906 2472.828125 C 2481.839844 2452.109375 2468.421875 2431.480469 2457.589844 2435.808594 C 2451.671875 2438.179688 2448.589844 2447.191406 2449.191406 2454.171875 C 2450.601562 2470.441406 2473.890625 2477.628906 2494.46875 2490.589844 C 2574 2540.691406 2628.890625 2549.601562 2651.980469 2585.101562 C 2654.730469 2589.320312 2661.019531 2600.058594 2664.78125 2598.878906 "/>
<path fill-rule="nonzero" fill="rgb(93.75%, 93.359375%, 92.96875%)" fill-opacity="1" d="M 1983.070312 1990.398438 C 1985.910156 1980.179688 1991.449219 1964.898438 2002.761719 1949.058594 C 2005.128906 1945.738281 2013.121094 1934.878906 2029.339844 1921.488281 C 2053.929688 1901.191406 2093.269531 1878.519531 2101.199219 1887.039062 C 2104.949219 1891.058594 2100.878906 1901.171875 2097.269531 1906.730469 C 2090.050781 1917.808594 2079.179688 1919.171875 2063.789062 1925.429688 C 2040.398438 1934.949219 2024.960938 1948.328125 2011.621094 1959.890625 C 2004.101562 1966.398438 1993.769531 1976.339844 1983.070312 1990.398438 "/>
<path fill-rule="nonzero" fill="rgb(93.75%, 93.359375%, 92.96875%)" fill-opacity="1" d="M 2890.21875 1913.710938 C 2890.359375 1911.960938 2902.550781 1911.480469 2909.570312 1911.558594 C 2920.488281 1911.679688 2929.441406 1913.28125 2935.5 1914.699219 C 2935.5 1914.699219 2954.101562 1919.660156 2968.96875 1933.398438 C 2972.230469 1936.410156 2972.050781 1937.140625 2971.921875 1937.339844 C 2971.359375 1938.25 2966.730469 1936.199219 2957.160156 1932.421875 C 2954.28125 1931.148438 2949.871094 1929.308594 2944.359375 1927.5 C 2935.410156 1924.539062 2929.609375 1923.621094 2919.75 1921.589844 C 2902.101562 1917.949219 2890.078125 1915.46875 2890.21875 1913.710938 "/>
<path fill-rule="nonzero" fill="rgb(10.205078%, 28.24707%, 58.789062%)" fill-opacity="1" d="M 2238.519531 2283.859375 C 2186.28125 2249.808594 2100.261719 2197.988281 1985.519531 2163.761719 C 1916.558594 2143.191406 1863.351562 2136.761719 1815.210938 2161.789062 C 1776.410156 2181.96875 1756.800781 2214.339844 1751.230469 2223.808594 C 1748.328125 2228.730469 1713.03125 2290.890625 1735.480469 2360.648438 C 1750.050781 2405.929688 1781.179688 2430.25 1823.089844 2462.039062 C 1880.820312 2505.839844 1923.21875 2519.089844 2044.589844 2570.328125 C 2145.578125 2612.960938 2127.480469 2608.539062 2184.378906 2631.371094 C 2296.628906 2676.398438 2390.480469 2690.019531 2459.03125 2720.949219 C 2480.359375 2730.570312 2502.5 2738.308594 2524.011719 2747.53125 C 2528.539062 2749.46875 2540.210938 2754.511719 2556.488281 2757.371094 C 2561.859375 2758.320312 2566.589844 2758.828125 2570.378906 2759.109375 C 2573 2759.300781 2575.609375 2758.800781 2577.988281 2757.691406 C 2581.160156 2756.210938 2584.949219 2754.191406 2588.980469 2751.46875 C 2606.398438 2739.691406 2612.390625 2725.488281 2629.339844 2691.421875 C 2649.140625 2651.628906 2652.109375 2648.589844 2657.890625 2631.371094 C 2662.859375 2616.570312 2665.789062 2609.171875 2666.308594 2601.988281 C 2666.429688 2600.21875 2667.019531 2592.039062 2664.78125 2585.101562 C 2659.210938 2567.839844 2636.839844 2563.949219 2615.558594 2552.609375 C 2596.679688 2542.550781 2579.550781 2529.511719 2561.421875 2518.160156 C 2495.46875 2476.878906 2366.738281 2367.429688 2238.519531 2283.859375 "/>
<path fill-rule="nonzero" fill="rgb(66.601562%, 67.771912%, 68.554688%)" fill-opacity="1" d="M 2938.449219 1660.898438 L 2938.449219 2161.601562 C 2938.449219 2185.628906 2918.980469 2205.109375 2894.949219 2205.109375 L 2086.121094 2205.109375 C 2062.101562 2205.109375 2042.621094 2185.628906 2042.621094 2161.601562 L 2042.621094 1660.898438 C 2042.621094 1636.878906 2062.101562 1617.398438 2086.121094 1617.398438 L 2894.949219 1617.398438 C 2918.980469 1617.398438 2938.449219 1636.878906 2938.449219 1660.898438 "/>
<path fill-rule="nonzero" fill="rgb(84.764099%, 83.59375%, 81.639099%)" fill-opacity="1" d="M 3028.039062 2561.46875 C 3027.839844 2550.410156 3055.699219 2541.339844 3066.429688 2537.839844 C 3074.78125 2535.128906 3096.789062 2528.949219 3129.429688 2533.910156 C 3144.609375 2536.210938 3204.25 2545.261719 3239.691406 2595.929688 C 3248.71875 2608.828125 3264.511719 2631.410156 3261.351562 2660.898438 C 3258.390625 2688.519531 3240.511719 2706.371094 3227.878906 2718.980469 C 3202.871094 2743.949219 3168.039062 2760.359375 3161.921875 2753.441406 C 3156.230469 2747 3182.261719 2728.21875 3184.558594 2695.351562 C 3187.058594 2659.660156 3159.921875 2630.789062 3153.058594 2623.488281 C 3103.871094 2571.160156 3028.359375 2579.640625 3028.039062 2561.46875 "/>
<path fill-rule="nonzero" fill="rgb(92.96875%, 91.796875%, 88.671875%)" fill-opacity="1" d="M 2850.839844 2593.960938 C 2892.941406 2597.339844 2926.421875 2587.808594 2953.21875 2580.179688 C 3002.519531 2566.140625 3001.269531 2553.011719 3033.941406 2550.640625 C 3067.050781 2548.238281 3093.351562 2559.898438 3123.53125 2573.28125 C 3148.5 2584.359375 3170.269531 2594.011719 3190.46875 2616.601562 C 3203.660156 2631.351562 3224.21875 2654.339844 3221.96875 2685.511719 C 3219.539062 2719.128906 3192.179688 2740.160156 3182.589844 2747.53125 C 3171.359375 2756.160156 3156.191406 2764.039062 3125.5 2770.171875 C 3056.558594 2783.949219 3040.441406 2762.230469 2966.019531 2772.140625 C 2942.03125 2775.328125 2929.261719 2779.511719 2895.140625 2781.980469 C 2876.671875 2783.320312 2857.820312 2785.648438 2834.101562 2782.96875 C 2814.179688 2780.710938 2788.441406 2777.800781 2783.898438 2764.261719 C 2781.019531 2755.699219 2789.71875 2752.101562 2794.730469 2735.71875 C 2803.859375 2705.789062 2783.558594 2689.191406 2792.761719 2660.898438 C 2797.738281 2645.589844 2810.429688 2643.460938 2808.511719 2636.289062 C 2804.519531 2621.429688 2755.359375 2627.460938 2753.378906 2616.601562 C 2752.210938 2610.171875 2768.171875 2600.96875 2782.910156 2595.929688 C 2808.941406 2587.019531 2828.089844 2592.128906 2850.839844 2593.960938 "/>
<path fill-rule="nonzero" fill="rgb(11.767578%, 10.984802%, 11.767578%)" fill-opacity="1" d="M 2390.71875 925.109375 C 2402.558594 926.980469 2407.429688 978.601562 2416.679688 1081.769531 C 2422.601562 1147.738281 2425.558594 1180.730469 2424.070312 1206.578125 C 2419.039062 1293.851562 2391.960938 1370.859375 2386.300781 1386.570312 C 2369.988281 1431.820312 2362.128906 1437.890625 2361.371094 1463.828125 C 2359.378906 1530.800781 2409.210938 1575.660156 2400.710938 1582.898438 C 2393.769531 1588.820312 2351.511719 1566.679688 2332.511719 1526.019531 C 2317.441406 1493.75 2327.898438 1473.121094 2324.730469 1407.101562 C 2322.980469 1370.671875 2318.941406 1359.171875 2314.570312 1323.53125 C 2311.410156 1297.769531 2299.769531 1197.578125 2319.101562 1094.929688 C 2334.359375 1013.898438 2370.691406 921.960938 2390.71875 925.109375 "/>
<path fill-rule="nonzero" fill="rgb(78.514099%, 79.296875%, 80.076599%)" fill-opacity="1" d="M 2581.101562 1904.851562 C 2581.101562 1954.871094 2540.558594 1995.421875 2490.539062 1995.421875 C 2440.519531 1995.421875 2399.96875 1954.871094 2399.96875 1904.851562 C 2399.96875 1854.828125 2440.519531 1814.289062 2490.539062 1814.289062 C 2540.558594 1814.289062 2581.101562 1854.828125 2581.101562 1904.851562 "/>
<path fill-rule="nonzero" fill="rgb(15.696716%, 14.892578%, 15.696716%)" fill-opacity="1" d="M 2345.128906 1577.988281 C 2336.921875 1570.820312 2315.21875 1544.050781 2306.511719 1508.910156 C 2299.128906 1479.179688 2303.429688 1449.21875 2305.921875 1419.179688 C 2308.359375 1389.851562 2306.210938 1360.820312 2301.820312 1331.78125 C 2297.308594 1302.03125 2290.988281 1272.570312 2287.070312 1242.730469 C 2283.109375 1212.550781 2282.300781 1182.398438 2286.890625 1152.230469 C 2291.230469 1123.671875 2298.539062 1095.519531 2305.46875 1067.488281 C 2317.910156 1017.148438 2332.359375 966.371094 2358.28125 921.078125 C 2371.148438 898.589844 2386.910156 877.28125 2406.160156 859.828125 C 2425.761719 842.058594 2450.230469 827.511719 2477.011719 824.878906 C 2483.449219 824.25 2489.910156 824.378906 2496.328125 825.171875 C 2497.46875 825.320312 2497.460938 823.519531 2496.328125 823.378906 C 2443.058594 816.761719 2397.871094 858.710938 2369.878906 899.261719 C 2339.761719 942.890625 2322.789062 994.039062 2309.378906 1044.871094 C 2302.109375 1072.421875 2295.230469 1100.210938 2289.460938 1128.121094 C 2283.21875 1158.269531 2280.398438 1188.390625 2282.78125 1219.148438 C 2287.480469 1279.808594 2306.828125 1338.929688 2305.238281 1400.148438 C 2304.429688 1431.140625 2297.578125 1462.058594 2301.691406 1493.078125 C 2305.140625 1519.179688 2315.601562 1544.289062 2331.609375 1565.179688 C 2337.101562 1572.359375 2341.390625 1577.339844 2343.859375 1579.261719 C 2346.851562 1581.578125 2350.769531 1584.019531 2351.011719 1583.699219 C 2351.320312 1583.300781 2345.96875 1578.71875 2345.128906 1577.988281 "/>
<path fill-rule="nonzero" fill="rgb(15.696716%, 14.892578%, 15.696716%)" fill-opacity="1" d="M 2253.960938 1275.539062 C 2253.660156 1246.558594 2254.601562 1240.699219 2255.191406 1208.371094 C 2255.589844 1186.460938 2255.679688 1164.53125 2256.449219 1142.640625 C 2256.808594 1132.171875 2257.660156 1121.640625 2260.429688 1111.5 C 2263.019531 1101.980469 2267.589844 1093.328125 2272.699219 1084.949219 C 2277.519531 1077.03125 2282.738281 1069.339844 2286.941406 1061.058594 C 2291.25 1052.578125 2294.101562 1043.570312 2295.550781 1034.171875 C 2298.550781 1014.609375 2296.359375 994.78125 2296.429688 975.109375 C 2296.46875 964.941406 2297.109375 954.730469 2299.410156 944.808594 C 2301.699219 934.910156 2305.609375 925.480469 2310.308594 916.511719 C 2319.609375 898.789062 2331.390625 882.089844 2343.261719 866.03125 C 2354.949219 850.230469 2367.851562 835.378906 2382.648438 822.410156 C 2410.46875 798.011719 2443.890625 780.019531 2479.601562 770.269531 C 2483.878906 769.109375 2488.191406 768.058594 2492.53125 767.128906 C 2493.660156 766.890625 2493.179688 765.160156 2492.050781 765.398438 C 2456.121094 773.140625 2422.089844 789.050781 2393.019531 811.550781 C 2361.671875 835.808594 2337.761719 868.039062 2316.929688 901.46875 C 2306.429688 918.320312 2298.019531 936.199219 2295.660156 956.109375 C 2293.289062 976.191406 2295.800781 996.421875 2295.25 1016.550781 C 2294.96875 1026.730469 2293.871094 1036.941406 2290.878906 1046.710938 C 2288.03125 1056.03125 2283.269531 1064.519531 2278.179688 1072.761719 C 2273.160156 1080.878906 2267.820312 1088.851562 2263.730469 1097.488281 C 2259.558594 1106.320312 2257.148438 1115.710938 2255.929688 1125.378906 C 2254.601562 1135.851562 2254.519531 1146.429688 2254.328125 1156.96875 C 2254.121094 1168.328125 2253.910156 1179.699219 2253.710938 1191.058594 C 2252.941406 1232.898438 2252.050781 1235.511719 2252.46875 1258.738281 C 2252.808594 1277.078125 2253.828125 1294.078125 2254.070312 1294.078125 C 2254.261719 1294.070312 2254.050781 1284.398438 2253.960938 1275.539062 "/>
<path fill-rule="nonzero" fill="rgb(15.696716%, 14.892578%, 15.696716%)" fill-opacity="1" d="M 2558.230469 768.03125 C 2560.421875 774.628906 2594.449219 768.28125 2625.550781 781.648438 C 2636.058594 786.171875 2646.210938 791.46875 2656.078125 797.191406 C 2665.449219 802.621094 2674.730469 808.320312 2683.308594 814.890625 C 2691.609375 821.25 2699.308594 828.511719 2705.179688 837.089844 C 2711.53125 846.371094 2715 856.910156 2717.761719 867.640625 C 2720.601562 878.660156 2723.101562 889.679688 2727.410156 900.28125 C 2731.671875 910.738281 2736.941406 920.769531 2741.421875 931.140625 C 2745.890625 941.519531 2749.191406 952.21875 2750.878906 963.359375 C 2752.539062 974.339844 2752.800781 985.488281 2752.359375 996.570312 C 2751.46875 1018.769531 2747.78125 1040.730469 2745.890625 1062.851562 C 2744.039062 1084.480469 2744.078125 1106.359375 2749.890625 1127.449219 C 2755.421875 1147.539062 2762.621094 1160.511719 2777.808594 1184.980469 C 2803.929688 1227.070312 2849.699219 1284.679688 2856.648438 1293.148438 C 2858.558594 1295.46875 2862.300781 1299.878906 2865.238281 1306.601562 C 2866.75 1310.019531 2867.828125 1313.558594 2868.019531 1313.511719 C 2868.300781 1313.429688 2866.320312 1306.261719 2866.230469 1305.949219 C 2859.929688 1283.230469 2836.910156 1259.980469 2836.910156 1259.980469 C 2820 1242.910156 2809.25 1227.28125 2787.75 1196.019531 C 2772.011719 1173.121094 2762.601562 1158.75 2755.109375 1137.949219 C 2747.460938 1116.738281 2745.710938 1094.648438 2747 1072.328125 C 2749.53125 1028.710938 2762.230469 983.289062 2747.058594 940.550781 C 2743.269531 929.878906 2738.089844 919.75 2733.359375 909.460938 C 2728.429688 898.730469 2724.648438 887.859375 2721.800781 876.429688 C 2719.148438 865.789062 2716.710938 854.980469 2711.859375 845.019531 C 2707.421875 835.910156 2700.898438 827.929688 2693.390625 821.03125 C 2685.941406 814.171875 2677.570312 808.320312 2668.96875 802.910156 C 2659.238281 796.78125 2649.21875 791.050781 2638.898438 785.921875 C 2619.011719 776.039062 2597.570312 768.351562 2575.171875 766.5 C 2569.589844 766.039062 2559.671875 763.378906 2558.230469 766.289062 C 2557.878906 766.988281 2558.140625 767.761719 2558.230469 768.03125 "/>
<path fill-rule="nonzero" fill="rgb(15.696716%, 14.892578%, 15.696716%)" fill-opacity="1" d="M 2381.691406 1426.488281 C 2375.128906 1416.03125 2378.378906 1403.660156 2382.960938 1393.101562 C 2387.53125 1382.53125 2393.46875 1372.609375 2398.078125 1362.039062 C 2407.238281 1341 2413.550781 1318.71875 2416.820312 1296.011719 C 2420.171875 1272.78125 2420.308594 1249.179688 2417.261719 1225.910156 C 2414.160156 1202.238281 2408.101562 1179.101562 2401.371094 1156.238281 C 2394.410156 1132.601562 2386.710938 1109.160156 2380.648438 1085.261719 C 2375.359375 1064.398438 2369.839844 1041.101562 2376.789062 1019.949219 C 2380.191406 1009.609375 2386.871094 1001.199219 2395.53125 994.730469 C 2403.570312 988.71875 2412.648438 984.300781 2421.398438 979.449219 C 2429.53125 974.949219 2437.308594 969.960938 2444.058594 963.519531 C 2450.328125 957.539062 2455.679688 950.648438 2460.25 943.300781 C 2479.78125 911.910156 2485.910156 874.28125 2504.75 842.53125 C 2507.058594 838.640625 2509.570312 834.871094 2512.261719 831.238281 C 2512.671875 830.691406 2511.75 830.171875 2511.351562 830.710938 C 2488.78125 861.101562 2482.210938 899.441406 2465.070312 932.628906 C 2456.441406 949.351562 2444.800781 963.96875 2428.679688 973.988281 C 2412.289062 984.179688 2392.328125 991.070312 2381.339844 1007.949219 C 2369.988281 1025.390625 2371.589844 1047.738281 2375.421875 1067.25 C 2380.078125 1091.058594 2387.558594 1114.320312 2394.628906 1137.5 C 2401.839844 1161.160156 2408.988281 1184.921875 2413.539062 1209.269531 C 2418.050781 1233.339844 2419.578125 1257.808594 2417.390625 1282.21875 C 2415.238281 1306.03125 2409.75 1329.558594 2401.128906 1351.859375 C 2396.730469 1363.230469 2391.21875 1373.929688 2385.730469 1384.78125 C 2381.148438 1393.820312 2376.5 1403.890625 2376.859375 1414.261719 C 2377.019531 1418.839844 2378.351562 1423.140625 2380.78125 1427.019531 C 2381.140625 1427.601562 2382.058594 1427.070312 2381.691406 1426.488281 "/>
<path fill-rule="nonzero" fill="rgb(15.696716%, 14.892578%, 15.696716%)" fill-opacity="1" d="M 2548.28125 705.839844 C 2566.140625 688.730469 2592.941406 686.289062 2616.308594 691.808594 C 2638.789062 697.121094 2660.148438 708.261719 2678.878906 721.289062 C 2713.390625 745.300781 2741.308594 779.328125 2755.140625 818.53125 C 2762.191406 838.511719 2765.171875 859.421875 2764.121094 880.5 C 2763.449219 894.101562 2761.589844 907.628906 2761.28125 921.238281 C 2761.011719 933.308594 2762.230469 945.328125 2764.378906 957.210938 C 2768.75 981.488281 2776.691406 1004.96875 2782.210938 1029.011719 C 2784.988281 1041.140625 2787.148438 1053.441406 2787.859375 1065.871094 C 2788.601562 1078.960938 2787.53125 1092.050781 2785.980469 1105.058594 C 2784.378906 1118.398438 2782.308594 1131.699219 2781.28125 1145.101562 C 2780.371094 1156.921875 2779.660156 1169.570312 2783.898438 1180.898438 C 2787.988281 1191.808594 2796.78125 1200.140625 2804.859375 1208.339844 C 2814.289062 1217.929688 2823.890625 1227.359375 2833.640625 1236.628906 C 2838.390625 1241.148438 2843.171875 1245.621094 2847.988281 1250.058594 C 2848.648438 1250.671875 2849.640625 1249.699219 2848.980469 1249.089844 C 2838.949219 1239.839844 2829.058594 1230.441406 2819.351562 1220.871094 C 2814.550781 1216.148438 2809.800781 1211.390625 2805.089844 1206.601562 C 2800.429688 1201.851562 2795.640625 1197.148438 2791.648438 1191.828125 C 2783.609375 1181.128906 2781.78125 1168.839844 2782.109375 1155.871094 C 2782.460938 1142.46875 2784.28125 1129.148438 2786.019531 1115.871094 C 2787.769531 1102.390625 2789.480469 1088.871094 2789.519531 1075.261719 C 2789.550781 1062.890625 2788.03125 1050.589844 2785.660156 1038.460938 C 2780.851562 1013.910156 2772.71875 990.128906 2767.480469 965.679688 C 2764.808594 953.199219 2762.898438 940.53125 2762.671875 927.761719 C 2762.421875 914.171875 2764.140625 900.648438 2765.121094 887.109375 C 2766.691406 865.421875 2764.820312 844.070312 2758.199219 823.238281 C 2745.78125 784.160156 2719.410156 749.871094 2686.300781 724.96875 C 2668.859375 711.851562 2649.21875 700.871094 2628.339844 693.839844 C 2606.320312 686.429688 2581.238281 684.480469 2560.121094 695.609375 C 2555.398438 698.101562 2551.101562 701.210938 2547.28125 704.871094 C 2546.640625 705.488281 2547.628906 706.460938 2548.28125 705.839844 "/>
<path fill-rule="nonzero" fill="rgb(15.696716%, 14.892578%, 15.696716%)" fill-opacity="1" d="M 2120.359375 1425.230469 C 2109.578125 1397.210938 2098.609375 1367.441406 2099.960938 1336.929688 C 2100.621094 1322 2104.691406 1307.511719 2112.441406 1294.699219 C 2119.171875 1283.550781 2128.171875 1273.988281 2137.691406 1265.179688 C 2157.039062 1247.261719 2178.140625 1231.671875 2194.371094 1210.621094 C 2211.101562 1188.910156 2223.289062 1163.691406 2229.761719 1137.050781 C 2237.140625 1106.640625 2236.550781 1075.128906 2239.96875 1044.191406 C 2241.75 1028.050781 2244.839844 1012.191406 2250.148438 996.820312 C 2255.300781 981.890625 2261.921875 967.488281 2268.570312 953.171875 C 2291.308594 904.199219 2317.671875 856.421875 2351.289062 814 C 2367.589844 793.421875 2385.628906 774.171875 2405.621094 757.121094 C 2415.980469 748.289062 2426.851562 740.058594 2438.21875 732.570312 C 2450.121094 724.71875 2462.660156 716.859375 2476.160156 712.140625 C 2483.5 709.570312 2491.121094 708.191406 2498.910156 708.671875 C 2499.578125 708.710938 2499.578125 707.648438 2498.910156 707.609375 C 2484.191406 706.710938 2470.390625 712.511719 2457.75 719.488281 C 2445.820312 726.070312 2434.359375 733.539062 2423.410156 741.640625 C 2401.988281 757.480469 2382.558594 775.878906 2365.011719 795.878906 C 2329.179688 836.738281 2301.128906 883.890625 2277.261719 932.539062 C 2264.210938 959.101562 2250.371094 986.5 2243.628906 1015.460938 C 2236.328125 1046.789062 2237.28125 1079.210938 2233.328125 1110.988281 C 2229.601562 1140.921875 2220.109375 1169.53125 2203.949219 1195.089844 C 2196.191406 1207.371094 2187.058594 1218.78125 2176.761719 1229.019531 C 2167.300781 1238.421875 2156.949219 1246.851562 2146.878906 1255.578125 C 2127.289062 1272.550781 2108.410156 1291.441406 2101.75 1317.320312 C 2094.351562 1346.109375 2101.898438 1376.390625 2111.328125 1403.769531 C 2113.851562 1411.070312 2116.570312 1418.300781 2119.339844 1425.511719 C 2119.578125 1426.140625 2120.601562 1425.871094 2120.359375 1425.230469 "/>
<path fill-rule="nonzero" fill="rgb(69.334412%, 70.506287%, 70.896912%)" fill-opacity="1" d="M 2518.648438 1617.398438 L 2042.621094 2133.191406 L 2042.621094 1660.898438 C 2042.621094 1636.878906 2062.101562 1617.398438 2086.121094 1617.398438 L 2518.648438 1617.398438 "/>
</svg>
