<?xml version="1.0" encoding="UTF-8"?>
<svg width="24px" height="24px" viewBox="0 0 24 24" version="1.1" xmlns="http://www.w3.org/2000/svg">
    <path d="M12 1.5C6.2 1.5 1.5 6.2 1.5 12c0 5.8 4.7 10.5 10.5 10.5 5.8 0 10.5-4.7 10.5-10.5C22.5 6.2 17.8 1.5 12 1.5zM8.4 10.2c0-.8.7-1.5 1.5-1.5s1.5.7 1.5 1.5c0 .8-.7 1.5-1.5 1.5s-1.5-.7-1.5-1.5zm6.3 6.3c-1.5 1.2-3.5 1.2-5 0-.2-.2-.2-.5 0-.7.2-.2.5-.2.7 0 1.1.9 2.6.9 3.7 0 .2-.2.5-.2.7 0 .1.2.1.5-.1.7zm-.3-4.8c-.8 0-1.5-.7-1.5-1.5 0-.8.7-1.5 1.5-1.5s1.5.7 1.5 1.5c0 .8-.7 1.5-1.5 1.5z" fill="#FF9B3E"/>
</svg> 