<?xml version="1.0" encoding="UTF-8"?>
<svg width="24px" height="24px" viewBox="0 0 24 24" version="1.1" xmlns="http://www.w3.org/2000/svg">
    <path d="M11.93,2C8.68,2,8.95,3.46,8.95,3.46l0,1.49H12v0.41H7.47c0,0-3.47-0.39-3.47,5.08c0,5.47,3.03,5.27,3.03,5.27h1.81V14.1 c0,0-0.1-3.03,2.97-3.03h5.12c0,0,2.87,0.05,2.87-2.78V4.46c0,0,0.44-2.46-3.87-2.46H11.93z M9.74,3.75c0.51,0,0.92,0.41,0.92,0.92 c0,0.51-0.41,0.92-0.92,0.92C9.23,5.59,8.82,5.18,8.82,4.67C8.82,4.16,9.23,3.75,9.74,3.75z" fill="#3776AB"/>
    <path d="M12.07,22c3.25,0,2.98-1.46,2.98-1.46l0-1.49H12v-0.41h4.53c0,0,3.47,0.39,3.47-5.08c0-5.47-3.03-5.27-3.03-5.27h-1.81v1.61 c0,0,0.1,3.03-2.97,3.03H7.07c0,0-2.87-0.05-2.87,2.78v3.83c0,0-0.44,2.46,3.87,2.46H12.07z M14.26,20.25 c-0.51,0-0.92-0.41-0.92-0.92c0-0.51,0.41-0.92,0.92-0.92c0.51,0,0.92,0.41,0.92,0.92C15.18,19.84,14.77,20.25,14.26,20.25z" fill="#FFD43B"/>
</svg> 