<?xml version="1.0" encoding="UTF-8"?>
<svg width="24px" height="24px" viewBox="0 0 24 24" version="1.1" xmlns="http://www.w3.org/2000/svg">
    <path d="M12.005 3c-4.97 0-9 4.03-9 9s4.03 9 9 9 9-4.03 9-9-4.03-9-9-9zm3.5 10.1c0 .234-.19.424-.424.424a.424.424 0 01-.424-.424c0-.234.19-.424.424-.424s.424.19.424.424zm-6.145-4.921l3.889 3.889a.424.424 0 010 .6l-.3.3a.424.424 0 01-.6 0l-3.889-3.889a.424.424 0 010-.6l.3-.3a.424.424 0 01.6 0z" fill="#EE4C2C"/>
    <circle cx="15.5" cy="8.5" r="1.3" fill="#EE4C2C"/>
</svg> 