<?xml version="1.0" encoding="UTF-8"?>
<svg width="24px" height="24px" viewBox="0 0 24 24" version="1.1" xmlns="http://www.w3.org/2000/svg">
    <path d="M12.1 5L4.8 9.1c-0.1 0.1-0.2 0.2-0.2 0.3v5.2c0 0.1 0.1 0.2 0.2 0.3l7.3 4.1c0.1 0.1 0.3 0.1 0.4 0l7.3-4.1c0.1-0.1 0.2-0.2 0.2-0.3V9.4c0-0.1-0.1-0.2-0.2-0.3L12.5 5c-0.1-0.1-0.3-0.1-0.4 0z" fill="#FF4B4B"/>
    <path d="M19.1 9.3l-6.9-3.9c-0.1-0.1-0.3-0.1-0.4 0L4.9 9.3C4.7 9.4 4.7 9.7 4.9 9.8l6.9 3.9c0.1 0.1 0.3 0.1 0.4 0l6.9-3.9c0.2-0.1 0.2-0.4 0-0.5z" fill="#FF4B4B" opacity="0.8"/>
</svg> 