<?xml version="1.0" encoding="UTF-8"?>
<svg xmlns="http://www.w3.org/2000/svg" width="24" height="24" viewBox="0 0 24 24">
    <path fill="#38BDF8" d="M12 6.5c-2.75 0-4.5 1.375-5.25 4.125C7.5 9.875 8.75 9.25 10.25 9.625c.9.225 1.544.863 2.257 1.575C13.584 12.275 14.797 13.5 18 13.5c2.75 0 4.5-1.375 5.25-4.125-0.75.75-2 1.375-3.5 1-0.9-0.225-1.544-0.863-2.257-1.575C16.416 7.725 15.203 6.5 12 6.5zM6 10.5c-2.75 0-4.5 1.375-5.25 4.125C1.5 13.875 2.75 13.25 4.25 13.625c.9.225 1.544.863 2.257 1.575C7.584 16.275 8.797 17.5 12 17.5c2.75 0 4.5-1.375 5.25-4.125-0.75.75-2 1.375-3.5 1-0.9-0.225-1.544-0.863-2.257-1.575C10.416 11.725 9.203 10.5 6 10.5z"/>
</svg> 